<svg id="Layer_2" data-name="Layer 2" xmlns="http://www.w3.org/2000/svg" viewBox="0 0 1715.62 1286.72"><defs><style>.cls-1{fill:#caeaf2;}</style></defs><path class="cls-1" d="M453.2,1215.68V956.59s227.09,114,422.39,114c121.88,0,226.35-58.31,226.35-144.89,0-99-123.62-114.85-214.16-127.22-67.91-8.83-135.81-17.67-202-31.8-44.31-9.41-152-32.45-232.61-105.35V156.55C528.12,76.36,636,34.82,741.3,18.65H334.38v67a40.32,40.32,0,0,1-40.21,40.21h-134a40.32,40.32,0,0,1-40.21-40.21v-67H93.12A80.23,80.23,0,0,0,12.7,99.07V1225a80.23,80.23,0,0,0,80.42,80.42h26.81v-67a40.33,40.33,0,0,1,40.21-40.21h134a40.33,40.33,0,0,1,40.21,40.21v67H701.22C595.53,1288.8,515.36,1254.92,453.2,1215.68Zm-118.82-165a40.32,40.32,0,0,1-40.21,40.21h-134a40.32,40.32,0,0,1-40.21-40.21v-134a40.33,40.33,0,0,1,40.21-40.21h134a40.33,40.33,0,0,1,40.21,40.21Zm0-321.68a40.32,40.32,0,0,1-40.21,40.21h-134A40.32,40.32,0,0,1,119.93,729V595a40.33,40.33,0,0,1,40.21-40.21h134A40.33,40.33,0,0,1,334.38,595Zm0-321.68a40.32,40.32,0,0,1-40.21,40.21h-134a40.32,40.32,0,0,1-40.21-40.21v-134a40.33,40.33,0,0,1,40.21-40.21h134a40.33,40.33,0,0,1,40.21,40.21Z" transform="translate(-12.7 -18.65)"/><path class="cls-1" d="M1647.91,18.65H1621.1v67a40.32,40.32,0,0,1-40.21,40.21h-134a40.32,40.32,0,0,1-40.21-40.21v-67H964.76c140.88,20.81,243.45,78.24,323.07,138.82V422.62S1129.89,256,844.25,256c-121.88,0-182.82,70.68-182.82,130.75,0,95.42,104.47,109.55,156.7,116.62,130.59,15.91,306.45,49.48,376.1,74.21,35.66,13.41,66.87,30.55,93.6,51v542.85c-77.24,77.33-180.37,116.86-290,133.95h408.84v-67a40.33,40.33,0,0,1,40.21-40.21h134a40.33,40.33,0,0,1,40.21,40.21v67h26.81a80.23,80.23,0,0,0,80.42-80.42V99.07A80.23,80.23,0,0,0,1647.91,18.65ZM1621.1,1050.7a40.32,40.32,0,0,1-40.21,40.21h-134a40.32,40.32,0,0,1-40.21-40.21v-134a40.33,40.33,0,0,1,40.21-40.21h134a40.33,40.33,0,0,1,40.21,40.21Zm0-321.68a40.32,40.32,0,0,1-40.21,40.21h-134A40.32,40.32,0,0,1,1406.65,729V595a40.33,40.33,0,0,1,40.21-40.21h134A40.33,40.33,0,0,1,1621.1,595Zm0-321.68a40.32,40.32,0,0,1-40.21,40.21h-134a40.32,40.32,0,0,1-40.21-40.21v-134a40.33,40.33,0,0,1,40.21-40.21h134a40.33,40.33,0,0,1,40.21,40.21Z" transform="translate(-12.7 -18.65)"/></svg>